<?xml version="1.0" encoding="UTF-8"?>
<svg id="Camada_1" data-name="Camada 1" xmlns="http://www.w3.org/2000/svg" viewBox="0 0 1980 1912.87">
  <defs>
    <style>
      .cls-1 {
        fill: #6c6e71;
      }

      .cls-2 {
        fill: #dfde29;
      }
    </style>
  </defs>
  <g>
    <g>
      <g>
        <path class="cls-2" d="M1444.69,1354.35c7.06-5.32,9.58,1.2,10.81,1.57,1.75.52,4.41-.34,5.26.04,17.37,7.7,40.54,33.96,50.1,50.35,3.62,6.21,16.25,39,18.35,39.61,4.74,1.38,13.89-8.93,15.76-12.99,7.83-16.99.21-30.77-14.55-39.75l-19.83-6.67c24.44-5.15,47.18-18.26,71.36-24.13l70.12,39.32,126.67,360.4-255.3,90.48-124.58-359.84,33.83-74.03,54.77-22.39c6.58-1.37-1.98,10.92-2.28,12.21-5.14,22.17,12.41,43.08,35.03,40.65-8.76-41.6-39.4-74.53-75.53-94.81Z"/>
        <path class="cls-2" d="M1817.5,1786.62l-306.97,102.24-141.3-403.64,1.19-9.88,40.93-80.39c15.03-2.96,38.3-17.87,52.27-19.4,6.4-.7,14.66,3.73,6.1,7.86-15.22,7.34-34.68,11.02-49.89,19.22l-38.2,75.97-1.12,4.95,134.85,387.68,287.86-96.76-141.49-390.43-81.48-40.57-86.91,31.5c-4.18.64-7.52-2.53-10.04-5.37l96.31-36.96,84.27,39.61,4.57,5.07c45.73,128.02,96.13,254.55,141.12,382.82,1.38,3.95,9.27,24.94,7.95,26.48Z"/>
      </g>
      <g>
        <path class="cls-1" d="M1301.65,393.26c-2.71-2.33-2.58-11.99,0-12.86v12.86Z"/>
        <path class="cls-1" d="M1301.65,600.59c-2.53-1.06-2.53-6.98,0-8.04,0,2.68,0,5.36,0,8.04Z"/>
        <path class="cls-1" d="M1301.65,481.65c-2.53-1.06-2.53-6.98,0-8.04v8.04Z"/>
        <path class="cls-1" d="M1301.65,658.44c-2.53-1.06-2.53-6.98,0-8.04,0,2.68,0,5.36,0,8.04Z"/>
        <path class="cls-1" d="M1301.65,449.51c-2.4-.52-2.5-5.76,0-6.43v6.43Z"/>
        <path class="cls-1" d="M1301.65,427.01c-2.42-.23-2.42-4.6,0-4.82v4.82Z"/>
        <path class="cls-1" d="M1301.65,410.94c-2.42-.23-2.42-4.6,0-4.82v4.82Z"/>
        <path class="cls-1" d="M1301.65,687.37c-2.42-.23-2.42-4.6,0-4.82,0,1.61,0,3.21,0,4.82Z"/>
        <polygon class="cls-1" points="1301.65 497.73 1300.08 496.92 1301.65 496.12 1301.65 497.73"/>
        <path class="cls-1" d="M1301.65,767.73l-1.58-.8,1.58-.8c0,.54,0,1.07,0,1.61Z"/>
        <path class="cls-1" d="M1301.65,735.59l-1.58-.8,1.58-.8c0,.54,0,1.07,0,1.61Z"/>
        <polygon class="cls-1" points="1301.65 398.08 1300.08 397.28 1301.65 396.47 1301.65 398.08"/>
        <polygon class="cls-1" points="1301.65 574.87 1300.08 574.07 1301.65 573.26 1301.65 574.87"/>
        <path class="cls-2" d="M1086.29,1277.21V193.96c45.75-1.01,91.72-.32,137.48-1.53,173.93-4.6,423.67-28.7,574.36,71.6,221.18,147.21,211.31,497.4-15.43,633.58-96.18,57.76-217.6,62.42-327.25,62.68l-108.79-221.47c7.75.25,15.6-.36,23.36-.07,153.53,5.54,391.85,27.46,367.15-198.4-19.28-176.32-182-166.07-318.94-163.08-38.88.85-77.76,1.45-116.59,3.15-2.58.87-2.71,10.52,0,12.86v3.21l-1.58.8,1.58.8v8.04c-2.42.23-2.42,4.6,0,4.82v11.25c-2.42.23-2.42,4.6,0,4.82v16.07c-2.5.67-2.4,5.91,0,6.43v24.11c-2.53,1.06-2.53,6.98,0,8.04v14.46l-1.58.8,1.58.8c0,25.15,0,50.38,0,75.54l-1.58.8,1.58.8c0,5.88,0,11.8,0,17.68-2.53,1.06-2.53,6.98,0,8.04-.03,16.58.05,33.24,0,49.82-2.53,1.06-2.53,6.98,0,8.04-.03,8.02.03,16.09,0,24.11-2.42.23-2.42,4.6,0,4.82-.05,15.51.05,31.1,0,46.61l-1.58.8,1.58.8c-.03,10.16.03,20.38,0,30.54l-1.58.8,1.58.8c-.49,166.9-2.91,334.08-1.61,501.44l-2.53,8.13-211.22-.1Z"/>
      </g>
    </g>
    <g>
      <path class="cls-2" d="M247.35,193.97l-.07,611.6c5.14,83.39,21.53,172.24,86.09,230.52,46.78,42.23,105.91,57.57,167.21,65.83l.7,180.92c-.1,1.87-.73,3.2-2.63,3.8-2.39.76-16.72,1.7-20.6,1.9-226.59,11.84-423.24-196.46-446.06-412.33-18.69-176.78-7.28-366.81-4.77-544.76.57-40.19-4.62-93.85-.15-131.94.19-1.62.73-5.54,2.49-5.54h217.77Z"/>
      <path class="cls-2" d="M965.75,193.97c1.55,32.37.6,64.92,1.54,97.3,4.53,156.28,9.58,312.79,3.21,469.16-1.9,46.58-2.61,93.47-9.81,139.66-23.29,149.46-154.92,319.55-302.29,363.08-11.22,3.31-34.48,9.73-45.45,9.37-2.38-.08-4.31-.34-5.42-2.75l-86.76-157.35c47.82-31.76,110.86-42.57,150.82-86.79,91.28-101,72.77-217.22,72.29-342.21-.63-163.15-.21-326.53,1.68-489.46h220.18Z"/>
    </g>
  </g>
  <path class="cls-2" d="M85.17,115.36c37.94-7.15,33.46-70.35-6.82-68.32-32.2,1.62-38.52,50.15-14.03,63.97,2.92,1.65,15.21,5.33,15.67,6.03,1.55,2.39-.66,16.51.21,20.67-40.23-2.85-63.6-37.75-49.84-76.36,24.86-69.77,132.24-25.5,97.87,46.44-8.98,18.8-39.87,44.21-43.05,7.58Z"/>
  <path class="cls-2" d="M494.85,26.82c.63.63,1.91,15.19,1.61,17.68h-49.02c-.17,0-2.41,2.24-2.41,2.41v69.11c0,5.06,24.01,1.21,27.65,1.23,3.25.02,21.15.66,22.01,1.35,1.15.94,2.57,16.53,1.76,17.5-1.73.61-3.51-1.6-4.01-1.6h-69.91l2.41-107.68c8.63,1.88,67.43-2.47,69.91,0Z"/>
  <path class="cls-2" d="M300.38,26.82v109.29h-22.5V46.11c-6.12-1.48-28.41,4-31.97-.17-.69-.81-2.29-19.12,3.84-19.12h50.63Z"/>
  <path class="cls-2" d="M559.14,28.43v103.66c0,.4,1.3.96,1.24,1.61-.37,4.38-17.93,1.71-22.13,2.41V46.11h-32.14v-17.68h53.04Z"/>
  <path class="cls-2" d="M165.39,26.82l1.99,71.14c1.22,5.44,3.39,9.64,7.61,13.29,4.32,3.74,14.72,6.12,15.41,7.09,2.11,2.98-.04,13.56.71,17.79-59.8-.79-47.62-65.07-47.98-106.64,1.64-4.55,5.13-.94,8.42-1.21,4.38-.36,8.98-2.51,13.84-1.46Z"/>
  <path class="cls-2" d="M237.7,28.43c-2.16,15.04.34,29.21-.02,44.18-.4,16.76-2.9,41.2-15.98,53.13-2.75,2.5-15.12,9.14-18.5,8.82-5.29-.51-9.61-11.97-10.63-16.77,9.73-4.96,18.54-7.41,20.63-19.83,1.39-8.24,1.83-25.72,2.07-34.9.3-11.54.47-23.34-1.68-34.63h24.11Z"/>
  <rect class="cls-2" x="342.17" y="27" width="22.5" height="109.2"/>
  <path class="cls-2" d="M1460.76,1355.96c-.85-.38-3.52.48-5.26-.04-1.22-.37-3.75-6.89-10.81-1.57-46.83-26.3-102.29-41.21-145.79-75.2l-208.76-.25-3.85-1.7,211.22.1,2.53-8.13c47.97,38.7,109.53,53.81,160.72,86.79Z"/>
  <path class="cls-2" d="M414.49,113.61v22.5h-34.55c-5.61-5.95-9.44-14.73-12.05-22.5h46.61Z"/>
  <path class="cls-2" d="M481.99,71.82c2,1.28,1.66,17.41,1.61,20.89h-24.91c-1.39,0-10.57-17.51-8.84-20.89,5.18,1.11,29.81-1.49,32.14,0Z"/>
  <path class="cls-2" d="M330.12,26.82c4.27,1.32,1.8,15.43,2.42,19.29-4.92-.87-18.83,1.9-21.72-1.6-1.98-2.4-5.84-14.1-5.61-17.69,6.49,1.23,19.46-1.68,24.91,0Z"/>
  <path class="cls-2" d="M591.28,26.82v19.29s-20.72-.19-20.72-.19c1-3.28-10.56-19.1-4.2-19.1h24.91Z"/>
</svg>